<?xml version="1.0" encoding="utf-8"?>
<svg xmlns="http://www.w3.org/2000/svg" width="126" height="146" viewBox="-12 -12 126 146">
  <rect x="-10" y="-10" width="102" height="122" rx="20" ry="20" fill="#1a1a1a"/>
  <path fill="#FEDD1E" transform="translate(-4,0)" d="M 72.583 99.425 L 72.375 99.425 L 72.166 99.425 L 71.957 99.425 L 71.749 99.425 L 71.540 99.425 L 71.341 99.383 L 71.135 99.371 L 70.930 99.350 L 70.738 99.295 L 70.535 99.262 L 70.349 99.199 L 70.150 99.166 L 69.969 99.092 L 69.775 99.027 L 69.589 98.935 L 69.397 98.875 L 69.211 98.784 L 69.025 98.708 L 68.864 98.580 L 68.686 98.477 L 68.491 98.415 L 68.352 98.274 L 68.200 98.167 L 68.024 98.062 L 67.857 97.943 L 67.705 97.805 L 67.555 97.661 L 67.415 97.517 L 67.274 97.397 L 67.140 97.240 L 66.992 97.092 L 66.845 96.945 L 66.717 96.783 L 66.623 96.597 L 66.499 96.432 L 66.376 96.268 L 66.283 96.082 L 66.190 95.897 L 66.098 95.712 L 65.970 95.551 L 65.881 95.362 L 65.817 95.167 L 65.730 94.977 L 65.674 94.782 L 65.581 94.595 L 65.533 94.398 L 65.492 94.199 L 65.450 94.000 L 65.388 93.804 L 65.337 93.607 L 65.283 93.411 L 65.262 93.207 L 65.234 93.004 L 65.200 92.802 L 65.158 92.603 L 65.117 92.404 L 65.117 92.195 L 65.075 91.997 L 65.055 91.793 L 65.033 91.589 L 65.017 91.384 L 64.992 91.182 L 64.992 90.973 L 64.950 90.774 L 64.950 90.566 L 64.908 90.367 L 64.908 90.158 L 64.886 89.955 L 64.867 89.751 L 64.848 89.546 L 64.825 89.343 L 64.811 89.138 L 64.783 88.936 L 64.742 88.737 L 64.742 88.528 L 64.700 88.330 L 64.658 88.131 L 64.623 87.930 L 64.605 87.726 L 64.569 87.525 L 64.529 87.324 L 64.473 87.128 L 64.416 86.933 L 64.367 86.736 L 64.288 86.554 L 64.218 86.369 L 64.158 86.174 L 64.074 85.985 L 64.011 85.789 L 63.918 85.602 L 63.825 85.415 L 63.740 85.237 L 63.656 85.058 L 63.558 84.883 L 63.465 84.697 L 63.346 84.529 L 63.246 84.346 L 63.104 84.195 L 63.000 84.017 L 62.852 83.869 L 62.721 83.709 L 62.597 83.545 L 62.439 83.447 L 62.291 83.299 L 62.140 83.157 L 61.993 83.009 L 61.830 82.882 L 61.663 82.763 L 61.480 82.663 L 61.315 82.541 L 61.150 82.417 L 60.965 82.324 L 60.780 82.231 L 60.594 82.139 L 60.397 82.080 L 60.219 81.993 L 60.032 81.899 L 59.834 81.842 L 59.645 81.758 L 59.450 81.697 L 59.254 81.635 L 59.056 81.592 L 58.857 81.550 L 58.658 81.508 L 58.462 81.452 L 58.258 81.425 L 58.061 81.374 L 57.857 81.344 L 57.650 81.333 L 57.453 81.281 L 57.248 81.258 L 57.039 81.258 L 56.840 81.217 L 56.632 81.217 L 56.433 81.175 L 56.224 81.175 L 56.016 81.175 L 55.817 81.133 L 55.608 81.133 L 55.399 81.133 L 55.191 81.133 L 54.982 81.133 L 54.774 81.133 L 54.565 81.133 L 54.356 81.133 L 54.148 81.133 L 53.945 81.161 L 53.740 81.175 L 53.532 81.175 L 53.333 81.217 L 53.124 81.217 L 52.924 81.254 L 52.717 81.258 L 52.508 81.267 L 52.309 81.312 L 52.107 81.342 L 51.900 81.357 L 51.707 81.425 L 51.499 81.434 L 51.306 81.508 L 51.105 81.539 L 50.909 81.592 L 50.710 81.633 L 50.511 81.682 L 50.319 81.758 L 50.125 81.821 L 49.927 81.879 L 49.740 81.971 L 49.553 82.047 L 49.366 82.120 L 49.180 82.211 L 48.994 82.303 L 48.809 82.395 L 48.645 82.519 L 48.470 82.630 L 48.293 82.737 L 48.129 82.861 L 47.964 82.984 L 47.810 83.123 L 47.659 83.266 L 47.512 83.413 L 47.349 83.517 L 47.217 83.667 L 47.093 83.832 L 46.951 83.983 L 46.845 84.160 L 46.704 84.313 L 46.597 84.490 L 46.473 84.654 L 46.380 84.841 L 46.266 85.011 L 46.181 85.189 L 46.097 85.368 L 46.020 85.559 L 45.927 85.746 L 45.848 85.938 L 45.776 86.131 L 45.720 86.326 L 45.663 86.521 L 45.550 86.688 L 45.508 86.887 L 45.465 87.086 L 45.409 87.281 L 45.358 87.479 L 45.333 87.683 L 45.300 87.884 L 45.258 88.083 L 45.217 88.282 L 45.184 88.483 L 45.165 88.687 L 45.133 88.888 L 45.092 89.087 L 45.092 89.296 L 45.050 89.494 L 45.050 89.703 L 45.008 89.902 L 44.996 90.108 L 44.967 90.309 L 44.959 90.516 L 44.925 90.717 L 44.884 90.916 L 44.883 91.124 L 44.842 91.323 L 44.828 91.528 L 44.800 91.730 L 44.758 91.932 L 44.733 92.135 L 44.714 92.339 L 44.658 92.534 L 44.633 92.737 L 44.583 92.934 L 44.531 93.131 L 44.470 93.328 L 44.425 93.526 L 44.383 93.724 L 44.339 93.923 L 44.245 94.109 L 44.189 94.305 L 44.102 94.494 L 44.039 94.689 L 43.945 94.876 L 43.821 95.040 L 43.728 95.227 L 43.635 95.414 L 43.517 95.583 L 43.387 95.743 L 43.271 95.913 L 43.170 96.094 L 43.024 96.243 L 42.891 96.401 L 42.734 96.532 L 42.616 96.701 L 42.459 96.808 L 42.311 96.955 L 42.144 97.073 L 41.982 97.201 L 41.810 97.312 L 41.649 97.440 L 41.472 97.545 L 41.297 97.636 L 41.122 97.728 L 40.941 97.830 L 40.754 97.923 L 40.556 97.980 L 40.366 98.050 L 40.167 98.100 L 39.980 98.183 L 39.783 98.242 L 39.579 98.268 L 39.381 98.318 L 39.186 98.374 L 38.989 98.425 L 38.780 98.425 L 38.572 98.425 L 38.373 98.467 L 38.164 98.467 L 37.956 98.467 L 37.747 98.467 L 37.538 98.467 L 37.330 98.465 L 37.131 98.425 L 36.922 98.425 L 36.718 98.409 L 36.522 98.353 L 36.326 98.300 L 36.124 98.262 L 35.924 98.221 L 35.730 98.165 L 35.536 98.095 L 35.337 98.050 L 35.151 97.960 L 34.954 97.902 L 34.767 97.808 L 34.595 97.695 L 34.420 97.603 L 34.245 97.511 L 34.063 97.413 L 33.897 97.292 L 33.734 97.168 L 33.570 97.045 L 33.405 96.922 L 33.258 96.775 L 33.113 96.659 L 32.982 96.499 L 32.838 96.359 L 32.693 96.209 L 32.559 96.052 L 32.446 95.879 L 32.342 95.701 L 32.199 95.549 L 32.094 95.372 L 32.001 95.185 L 31.902 95.002 L 31.784 94.834 L 31.690 94.647 L 31.630 94.450 L 31.540 94.262 L 31.484 94.067 L 31.408 93.876 L 31.367 93.677 L 31.315 93.481 L 31.259 93.285 L 31.202 93.087 L 31.158 92.889 L 31.117 92.690 L 31.075 92.491 L 31.048 92.287 L 31.032 92.081 L 30.992 91.882 L 30.950 91.683 L 30.950 91.475 L 30.908 91.276 L 30.908 91.067 L 30.867 90.868 L 30.867 90.660 L 30.867 90.451 L 30.825 90.252 L 30.825 90.044 L 30.825 89.835 L 30.825 89.626 L 30.788 89.426 L 30.783 89.219 L 30.783 89.010 L 30.783 88.802 L 30.783 88.593 L 30.783 88.384 L 30.783 88.176 L 30.783 87.967 L 30.783 87.758 L 30.783 87.550 L 30.783 87.341 L 30.783 87.133 L 30.783 86.924 L 30.783 86.715 L 30.783 86.507 L 30.783 86.298 L 30.783 86.089 L 30.783 85.881 L 30.783 85.672 L 30.783 85.463 L 30.783 85.255 L 30.783 85.046 L 30.783 84.837 L 30.783 84.629 L 30.783 84.420 L 30.783 84.212 L 30.783 84.003 L 30.783 83.794 L 30.783 83.586 L 30.783 83.377 L 30.783 83.168 L 30.783 82.960 L 30.783 82.751 L 30.783 82.542 L 30.783 82.334 L 30.783 82.125 L 30.783 81.916 L 30.783 81.708 L 30.783 81.499 L 30.783 81.291 L 30.783 81.082 L 30.783 80.873 L 30.783 80.665 L 30.783 80.456 L 30.783 80.247 L 30.783 80.039 L 30.783 79.830 L 30.783 79.621 L 30.783 79.413 L 30.783 79.204 L 30.783 78.996 L 30.783 78.787 L 30.783 78.578 L 30.783 78.370 L 30.783 78.161 L 30.783 77.952 L 30.783 77.744 L 30.783 77.535 L 30.783 77.326 L 30.783 77.118 L 30.783 76.909 L 30.783 76.700 L 30.783 76.492 L 30.783 76.283 L 30.783 76.075 L 30.783 75.866 L 30.783 75.657 L 30.783 75.449 L 30.783 75.240 L 30.783 75.031 L 30.783 74.823 L 30.783 74.614 L 30.783 74.405 L 30.783 74.197 L 30.783 73.988 L 30.783 73.780 L 30.783 73.571 L 30.783 73.362 L 30.783 73.154 L 30.783 72.945 L 30.783 72.736 L 30.783 72.528 L 30.783 72.319 L 30.783 72.110 L 30.783 71.902 L 30.783 71.693 L 30.783 71.484 L 30.783 71.276 L 30.783 71.067 L 30.783 70.859 L 30.783 70.650 L 30.783 70.441 L 30.783 70.233 L 30.783 70.024 L 30.783 69.815 L 30.783 69.607 L 30.783 69.398 L 30.783 69.189 L 30.783 68.981 L 30.783 68.772 L 30.783 68.564 L 30.783 68.355 L 30.742 68.156 L 30.742 67.947 L 30.742 67.739 L 30.742 67.530 L 30.736 67.323 L 30.700 67.123 L 30.700 66.914 L 30.700 66.705 L 30.658 66.507 L 30.658 66.298 L 30.617 66.099 L 30.617 65.891 L 30.575 65.692 L 30.567 65.485 L 30.533 65.284 L 30.492 65.085 L 30.450 64.887 L 30.418 64.686 L 30.392 64.481 L 30.342 64.283 L 30.286 64.088 L 30.242 63.890 L 30.200 63.691 L 30.089 63.522 L 30.031 63.328 L 29.975 63.133 L 29.902 62.940 L 29.824 62.748 L 29.731 62.562 L 29.654 62.370 L 29.569 62.192 L 29.485 62.013 L 29.371 61.843 L 29.278 61.656 L 29.154 61.492 L 29.048 61.314 L 28.906 61.163 L 28.801 60.985 L 28.658 60.834 L 28.535 60.669 L 28.403 60.517 L 28.240 60.415 L 28.092 60.267 L 27.941 60.125 L 27.788 59.986 L 27.623 59.862 L 27.459 59.738 L 27.281 59.631 L 27.108 59.520 L 26.943 59.397 L 26.758 59.304 L 26.572 59.212 L 26.386 59.121 L 26.198 59.048 L 26.012 58.973 L 25.825 58.880 L 25.627 58.822 L 25.433 58.758 L 25.241 58.682 L 25.043 58.633 L 24.844 58.592 L 24.647 58.540 L 24.446 58.508 L 24.254 58.435 L 24.046 58.425 L 23.852 58.357 L 23.645 58.342 L 23.443 58.313 L 23.244 58.267 L 23.036 58.258 L 22.828 58.256 L 22.628 58.217 L 22.420 58.217 L 22.221 58.175 L 22.012 58.175 L 21.813 58.133 L 21.605 58.133 L 21.396 58.133 L 21.194 58.105 L 20.989 58.092 L 20.780 58.092 L 20.571 58.092 L 20.363 58.092 L 20.154 58.092 L 19.951 58.067 L 19.747 58.050 L 19.538 58.050 L 19.329 58.050 L 19.121 58.050 L 18.912 58.050 L 18.704 58.050 L 18.495 58.050 L 18.286 58.050 L 18.078 58.050 L 17.869 58.050 L 17.660 58.050 L 17.452 58.050 L 17.243 58.050 L 17.034 58.050 L 16.826 58.050 L 16.617 58.050 L 16.408 58.050 L 16.200 58.050 L 15.991 58.050 L 15.783 58.050 L 15.574 58.050 L 15.365 58.050 L 15.157 58.050 L 14.948 58.050 L 14.739 58.050 L 14.531 58.050 L 14.322 58.050 L 14.113 58.050 L 13.905 58.050 L 13.696 58.050 L 13.487 58.050 L 13.279 58.050 L 13.070 58.050 L 12.862 58.050 L 12.653 58.050 L 12.444 58.050 L 12.236 58.050 L 12.027 58.050 L 11.818 58.050 L 11.610 58.050 L 11.401 58.050 L 11.192 58.050 L 10.984 58.050 L 10.775 58.050 L 10.576 58.008 L 10.368 58.008 L 10.159 58.008 L 9.950 58.008 L 9.751 57.967 L 9.546 57.952 L 9.341 57.933 L 9.133 57.925 L 8.934 57.883 L 8.725 57.883 L 8.526 57.842 L 8.327 57.800 L 8.124 57.779 L 7.920 57.758 L 7.724 57.704 L 7.522 57.675 L 7.333 57.592 L 7.129 57.573 L 6.936 57.508 L 6.738 57.461 L 6.543 57.405 L 6.356 57.312 L 6.158 57.254 L 5.965 57.180 L 5.774 57.103 L 5.584 57.017 L 5.405 56.932 L 5.220 56.853 L 5.048 56.741 L 4.871 56.637 L 4.686 56.560 L 4.517 56.442 L 4.345 56.343 L 4.191 56.207 L 4.037 56.068 L 3.867 55.958 L 3.701 55.845 L 3.586 55.689 L 3.444 55.571 L 3.284 55.468 L 3.165 55.300 L 2.999 55.181 L 2.892 55.017 L 2.727 54.911 L 2.612 54.740 L 2.481 54.581 L 2.364 54.411 L 2.234 54.251 L 2.087 54.103 L 1.999 53.931 L 1.900 53.748 L 1.817 53.574 L 1.722 53.405 L 1.633 53.233 L 1.544 53.061 L 1.472 52.877 L 1.416 52.682 L 1.386 52.486 L 1.317 52.306 L 1.233 52.132 L 1.233 51.923 L 1.150 51.749 L 1.150 51.540 L 1.150 51.332 L 1.119 51.136 L 1.067 50.949 L 1.132 50.768 L 1.150 50.566 L 1.150 50.358 L 1.150 50.149 L 1.233 49.975 L 1.233 49.766 L 1.317 49.592 L 1.399 49.418 L 1.424 49.218 L 1.480 49.023 L 1.558 48.842 L 1.646 48.671 L 1.735 48.499 L 1.823 48.327 L 1.912 48.155 L 2.011 47.972 L 2.100 47.800 L 2.247 47.653 L 2.372 47.489 L 2.494 47.323 L 2.620 47.160 L 2.740 46.993 L 2.911 46.900 L 3.011 46.722 L 3.179 46.604 L 3.297 46.436 L 3.452 46.329 L 3.594 46.212 L 3.720 46.070 L 3.880 45.945 L 4.053 45.840 L 4.204 45.696 L 4.363 45.572 L 4.530 45.462 L 4.702 45.349 L 4.884 45.266 L 5.065 45.168 L 5.233 45.051 L 5.422 44.978 L 5.601 44.893 L 5.790 44.805 L 5.984 44.735 L 6.176 44.657 L 6.373 44.597 L 6.560 44.504 L 6.755 44.447 L 6.954 44.408 L 7.146 44.335 L 7.350 44.317 L 7.541 44.242 L 7.741 44.205 L 7.939 44.158 L 8.141 44.130 L 8.346 44.117 L 8.545 44.075 L 8.744 44.033 L 8.952 44.033 L 9.151 43.992 L 9.359 43.983 L 9.563 43.958 L 9.768 43.941 L 9.969 43.908 L 10.178 43.908 L 10.386 43.908 L 10.594 43.903 L 10.794 43.867 L 11.002 43.867 L 11.211 43.867 L 11.420 43.867 L 11.628 43.867 L 11.837 43.867 L 12.046 43.867 L 12.254 43.867 L 12.463 43.867 L 12.671 43.867 L 12.880 43.867 L 13.089 43.867 L 13.297 43.867 L 13.506 43.867 L 13.715 43.867 L 13.923 43.867 L 14.132 43.867 L 14.341 43.867 L 14.549 43.867 L 14.758 43.867 L 14.967 43.867 L 15.175 43.867 L 15.384 43.867 L 15.592 43.867 L 15.801 43.867 L 16.010 43.867 L 16.218 43.867 L 16.427 43.867 L 16.636 43.867 L 16.844 43.867 L 17.053 43.867 L 17.262 43.867 L 17.470 43.867 L 17.679 43.867 L 17.888 43.867 L 18.096 43.867 L 18.305 43.867 L 18.513 43.867 L 18.722 43.867 L 18.931 43.867 L 19.139 43.867 L 19.348 43.867 L 19.557 43.867 L 19.765 43.867 L 19.968 43.841 L 20.173 43.825 L 20.381 43.825 L 20.590 43.825 L 20.799 43.825 L 21.007 43.825 L 21.211 43.803 L 21.415 43.783 L 21.623 43.783 L 21.832 43.783 L 22.031 43.742 L 22.239 43.742 L 22.438 43.700 L 22.647 43.700 L 22.846 43.658 L 23.054 43.658 L 23.262 43.645 L 23.460 43.595 L 23.664 43.575 L 23.869 43.552 L 24.064 43.492 L 24.271 43.475 L 24.465 43.408 L 24.664 43.368 L 24.862 43.325 L 25.061 43.283 L 25.259 43.230 L 25.452 43.158 L 25.644 43.086 L 25.842 43.029 L 26.028 42.936 L 26.212 42.855 L 26.403 42.789 L 26.589 42.697 L 26.774 42.604 L 26.960 42.512 L 27.124 42.388 L 27.295 42.272 L 27.475 42.171 L 27.640 42.047 L 27.804 41.923 L 27.954 41.779 L 28.106 41.636 L 28.253 41.489 L 28.419 41.396 L 28.543 41.231 L 28.667 41.067 L 28.814 40.919 L 28.918 40.740 L 29.061 40.589 L 29.162 40.408 L 29.286 40.244 L 29.380 40.057 L 29.486 39.885 L 29.571 39.706 L 29.656 39.528 L 29.739 39.338 L 29.832 39.152 L 29.904 38.958 L 29.983 38.767 L 30.039 38.572 L 30.102 38.381 L 30.200 38.207 L 30.242 38.008 L 30.294 37.812 L 30.350 37.617 L 30.399 37.418 L 30.426 37.214 L 30.450 37.011 L 30.492 36.813 L 30.533 36.614 L 30.575 36.415 L 30.575 36.206 L 30.617 36.008 L 30.617 35.799 L 30.658 35.600 L 30.658 35.391 L 30.700 35.193 L 30.700 34.984 L 30.700 34.775 L 30.742 34.577 L 30.742 34.368 L 30.742 34.159 L 30.742 33.951 L 30.742 33.742 L 30.783 33.543 L 30.783 33.335 L 30.783 33.126 L 30.783 32.917 L 30.783 32.709 L 30.783 32.500 L 30.783 32.291 L 30.783 32.083 L 30.783 31.874 L 30.783 31.665 L 30.783 31.457 L 30.783 31.248 L 30.783 31.040 L 30.783 30.831 L 30.783 30.622 L 30.783 30.414 L 30.783 30.205 L 30.783 29.996 L 30.783 29.788 L 30.783 29.579 L 30.783 29.370 L 30.783 29.162 L 30.783 28.953 L 30.783 28.745 L 30.783 28.536 L 30.783 28.327 L 30.783 28.119 L 30.783 27.910 L 30.783 27.701 L 30.783 27.493 L 30.783 27.284 L 30.783 27.075 L 30.783 26.867 L 30.783 26.658 L 30.783 26.449 L 30.783 26.241 L 30.783 26.032 L 30.783 25.824 L 30.783 25.615 L 30.783 25.406 L 30.783 25.198 L 30.783 24.989 L 30.783 24.780 L 30.783 24.572 L 30.783 24.363 L 30.783 24.154 L 30.783 23.946 L 30.783 23.737 L 30.783 23.528 L 30.783 23.320 L 30.783 23.111 L 30.783 22.903 L 30.783 22.694 L 30.783 22.485 L 30.783 22.277 L 30.783 22.068 L 30.783 21.859 L 30.783 21.651 L 30.783 21.442 L 30.783 21.233 L 30.783 21.025 L 30.783 20.816 L 30.783 20.608 L 30.783 20.399 L 30.783 20.190 L 30.783 19.982 L 30.783 19.773 L 30.783 19.564 L 30.783 19.356 L 30.783 19.147 L 30.783 18.938 L 30.783 18.730 L 30.783 18.521 L 30.783 18.312 L 30.783 18.104 L 30.783 17.895 L 30.783 17.687 L 30.783 17.478 L 30.783 17.269 L 30.783 17.061 L 30.783 16.852 L 30.783 16.643 L 30.783 16.435 L 30.783 16.226 L 30.783 16.017 L 30.783 15.809 L 30.783 15.600 L 30.783 15.392 L 30.783 15.183 L 30.783 14.974 L 30.783 14.766 L 30.783 14.557 L 30.783 14.348 L 30.783 14.140 L 30.783 13.931 L 30.783 13.722 L 30.783 13.514 L 30.783 13.305 L 30.783 13.096 L 30.783 12.888 L 30.783 12.679 L 30.797 12.474 L 30.825 12.272 L 30.825 12.063 L 30.825 11.854 L 30.825 11.646 L 30.867 11.447 L 30.867 11.238 L 30.867 11.030 L 30.908 10.831 L 30.908 10.622 L 30.950 10.423 L 30.950 10.215 L 30.992 10.016 L 31.033 9.817 L 31.055 9.613 L 31.079 9.408 L 31.117 9.208 L 31.158 9.009 L 31.209 8.812 L 31.268 8.615 L 31.324 8.419 L 31.367 8.221 L 31.408 8.022 L 31.492 7.833 L 31.548 7.638 L 31.637 7.449 L 31.699 7.253 L 31.792 7.066 L 31.915 6.901 L 32.009 6.715 L 32.102 6.529 L 32.213 6.354 L 32.350 6.199 L 32.459 6.024 L 32.568 5.848 L 32.706 5.694 L 32.846 5.541 L 32.995 5.405 L 33.121 5.241 L 33.271 5.129 L 33.419 4.981 L 33.586 4.864 L 33.748 4.736 L 33.914 4.618 L 34.076 4.490 L 34.258 4.392 L 34.433 4.300 L 34.608 4.209 L 34.784 4.100 L 34.970 4.007 L 35.168 3.949 L 35.356 3.867 L 35.554 3.820 L 35.744 3.739 L 35.941 3.688 L 36.142 3.652 L 36.343 3.612 L 36.539 3.556 L 36.734 3.500 L 36.941 3.492 L 37.150 3.492 L 37.348 3.450 L 37.557 3.450 L 37.766 3.450 L 37.974 3.450 L 38.183 3.450 L 38.392 3.450 L 38.590 3.492 L 38.799 3.492 L 39.007 3.495 L 39.202 3.551 L 39.398 3.607 L 39.598 3.651 L 39.800 3.683 L 39.998 3.733 L 40.186 3.819 L 40.384 3.867 L 40.573 3.945 L 40.771 4.002 L 40.958 4.095 L 41.135 4.202 L 41.310 4.293 L 41.485 4.385 L 41.666 4.483 L 41.827 4.613 L 41.995 4.729 L 42.157 4.857 L 42.324 4.974 L 42.472 5.122 L 42.624 5.232 L 42.747 5.397 L 42.900 5.532 L 43.037 5.687 L 43.178 5.839 L 43.284 6.017 L 43.395 6.191 L 43.530 6.347 L 43.643 6.520 L 43.736 6.706 L 43.830 6.893 L 43.954 7.057 L 44.047 7.244 L 44.109 7.440 L 44.198 7.629 L 44.254 7.824 L 44.342 8.012 L 44.383 8.211 L 44.425 8.410 L 44.478 8.606 L 44.538 8.803 L 44.591 8.999 L 44.633 9.198 L 44.666 9.399 L 44.717 9.596 L 44.741 9.799 L 44.759 10.003 L 44.800 10.205 L 44.836 10.405 L 44.842 10.612 L 44.883 10.811 L 44.892 11.018 L 44.925 11.219 L 44.967 11.417 L 44.967 11.626 L 45.005 11.826 L 45.008 12.033 L 45.050 12.232 L 45.050 12.441 L 45.092 12.640 L 45.098 12.847 L 45.133 13.047 L 45.173 13.246 L 45.192 13.451 L 45.217 13.653 L 45.258 13.852 L 45.300 14.051 L 45.342 14.250 L 45.365 14.455 L 45.418 14.652 L 45.467 14.849 L 45.508 15.048 L 45.550 15.247 L 45.673 15.412 L 45.729 15.607 L 45.785 15.803 L 45.850 15.997 L 45.935 16.187 L 46.029 16.374 L 46.098 16.567 L 46.183 16.746 L 46.272 16.922 L 46.388 17.093 L 46.481 17.279 L 46.605 17.444 L 46.717 17.617 L 46.853 17.773 L 46.964 17.947 L 47.106 18.098 L 47.230 18.263 L 47.368 18.400 L 47.525 18.517 L 47.672 18.664 L 47.823 18.807 L 47.981 18.940 L 48.145 19.064 L 48.310 19.188 L 48.483 19.300 L 48.661 19.406 L 48.826 19.530 L 49.011 19.621 L 49.197 19.712 L 49.383 19.803 L 49.566 19.883 L 49.757 19.953 L 49.945 20.045 L 50.142 20.104 L 50.337 20.160 L 50.530 20.236 L 50.728 20.283 L 50.926 20.330 L 51.121 20.386 L 51.325 20.408 L 51.517 20.485 L 51.725 20.492 L 51.918 20.567 L 52.126 20.575 L 52.326 20.613 L 52.527 20.650 L 52.735 20.658 L 52.941 20.670 L 53.143 20.700 L 53.349 20.708 L 53.550 20.742 L 53.759 20.742 L 53.962 20.764 L 54.166 20.783 L 54.375 20.783 L 54.583 20.783 L 54.792 20.783 L 55.001 20.783 L 55.209 20.783 L 55.418 20.783 L 55.627 20.783 L 55.835 20.783 L 56.034 20.742 L 56.243 20.742 L 56.451 20.742 L 56.650 20.700 L 56.859 20.700 L 57.058 20.658 L 57.266 20.657 L 57.470 20.629 L 57.667 20.575 L 57.875 20.571 L 58.078 20.536 L 58.276 20.492 L 58.480 20.458 L 58.677 20.408 L 58.876 20.367 L 59.074 20.325 L 59.271 20.273 L 59.468 20.213 L 59.664 20.158 L 59.853 20.073 L 60.049 20.009 L 60.236 19.916 L 60.413 19.827 L 60.611 19.769 L 60.796 19.677 L 60.982 19.584 L 61.163 19.487 L 61.331 19.368 L 61.496 19.244 L 61.676 19.141 L 61.844 19.023 L 62.006 18.894 L 62.154 18.748 L 62.304 18.604 L 62.452 18.457 L 62.606 18.355 L 62.730 18.191 L 62.865 18.035 L 63.008 17.884 L 63.117 17.708 L 63.256 17.555 L 63.359 17.375 L 63.473 17.203 L 63.567 17.017 L 63.658 16.840 L 63.744 16.662 L 63.833 16.485 L 63.926 16.298 L 64.019 16.111 L 64.077 15.913 L 64.158 15.724 L 64.226 15.531 L 64.301 15.349 L 64.369 15.163 L 64.425 14.967 L 64.481 14.772 L 64.533 14.575 L 64.571 14.373 L 64.613 14.174 L 64.632 13.970 L 64.658 13.767 L 64.700 13.569 L 64.742 13.370 L 64.744 13.162 L 64.783 12.962 L 64.819 12.762 L 64.825 12.555 L 64.856 12.354 L 64.867 12.147 L 64.894 11.945 L 64.908 11.740 L 64.908 11.531 L 64.950 11.333 L 64.950 11.124 L 64.992 10.925 L 64.992 10.716 L 65.025 10.516 L 65.033 10.309 L 65.063 10.107 L 65.075 9.902 L 65.117 9.703 L 65.119 9.495 L 65.158 9.295 L 65.200 9.097 L 65.236 8.894 L 65.270 8.693 L 65.289 8.489 L 65.345 8.293 L 65.395 8.095 L 65.450 7.898 L 65.492 7.699 L 65.533 7.500 L 65.589 7.305 L 65.683 7.118 L 65.739 6.923 L 65.819 6.731 L 65.889 6.538 L 65.977 6.349 L 66.106 6.188 L 66.199 6.003 L 66.290 5.817 L 66.384 5.632 L 66.512 5.471 L 66.632 5.303 L 66.725 5.117 L 66.858 4.959 L 67.006 4.811 L 67.153 4.664 L 67.282 4.503 L 67.424 4.385 L 67.571 4.246 L 67.718 4.098 L 67.874 3.967 L 68.040 3.847 L 68.208 3.733 L 68.369 3.636 L 68.505 3.491 L 68.703 3.432 L 68.877 3.323 L 69.038 3.195 L 69.228 3.125 L 69.414 3.034 L 69.606 2.974 L 69.792 2.883 L 69.987 2.825 L 70.166 2.742 L 70.362 2.704 L 70.553 2.653 L 70.755 2.617 L 70.949 2.567 L 71.152 2.539 L 71.360 2.533 L 71.559 2.492 L 71.767 2.492 L 71.976 2.492 L 72.185 2.492 L 72.393 2.492 L 72.600 2.500 L 72.801 2.533 L 73.003 2.567 L 73.202 2.593 L 73.400 2.643 L 73.607 2.658 L 73.786 2.737 L 73.975 2.792 L 74.172 2.828 L 74.358 2.921 L 74.553 2.983 L 74.741 3.063 L 74.928 3.151 L 75.100 3.250 L 75.285 3.342 L 75.451 3.464 L 75.638 3.538 L 75.812 3.648 L 75.977 3.772 L 76.149 3.882 L 76.307 4.013 L 76.466 4.116 L 76.617 4.259 L 76.758 4.401 L 76.896 4.525 L 77.035 4.637 L 77.175 4.749 L 77.313 4.892 L 77.417 5.067 L 77.559 5.185 L 77.692 5.342 L 77.807 5.514 L 77.931 5.678 L 78.038 5.855 L 78.147 6.028 L 78.240 6.213 L 78.367 6.375 L 78.480 6.546 L 78.580 6.728 L 78.667 6.901 L 78.723 7.096 L 78.843 7.262 L 78.905 7.459 L 78.986 7.636 L 79.047 7.828 L 79.100 8.021 L 79.175 8.200 L 79.217 8.399 L 79.267 8.593 L 79.342 8.772 L 79.374 8.975 L 79.390 9.181 L 79.433 9.376 L 79.517 9.550 L 79.517 9.759 L 79.592 9.938 L 79.592 10.147 L 79.633 10.345 L 79.633 10.554 L 79.633 10.763 L 79.683 10.957 L 79.683 11.165 L 79.683 11.374 L 79.683 11.582 L 79.712 11.779 L 79.758 11.970 L 79.758 12.179 L 79.758 12.387 L 79.758 12.596 L 79.758 12.805 L 79.758 13.013 L 79.758 13.222 L 79.758 13.431 L 79.758 13.639 L 79.758 13.848 L 79.758 14.057 L 79.758 14.265 L 79.758 14.474 L 79.758 14.682 L 79.758 14.891 L 79.758 15.100 L 79.758 15.308 L 79.758 15.517 L 79.758 15.726 L 79.758 15.934 L 79.758 16.143 L 79.758 16.352 L 79.758 16.560 L 79.758 16.769 L 79.758 16.978 L 79.758 17.186 L 79.758 17.395 L 79.758 17.603 L 79.758 17.812 L 79.758 18.021 L 79.758 18.229 L 79.758 18.438 L 79.758 18.647 L 79.758 18.855 L 79.758 19.064 L 79.758 19.273 L 79.758 19.481 L 79.758 19.690 L 79.758 19.898 L 79.758 20.107 L 79.758 20.316 L 79.758 20.524 L 79.758 20.733 L 79.758 20.942 L 79.758 21.150 L 79.758 21.359 L 79.758 21.568 L 79.758 21.776 L 79.758 21.985 L 79.758 22.194 L 79.758 22.402 L 79.758 22.611 L 79.758 22.819 L 79.758 23.028 L 79.758 23.237 L 79.758 23.445 L 79.758 23.654 L 79.758 23.863 L 79.758 24.071 L 79.758 24.280 L 79.758 24.489 L 79.758 24.697 L 79.758 24.906 L 79.758 25.114 L 79.758 25.323 L 79.758 25.532 L 79.758 25.740 L 79.683 25.919 L 79.683 26.128 L 79.683 26.337 L 79.683 26.545 L 79.680 26.753 L 79.633 26.948 L 79.633 27.157 L 79.619 27.362 L 79.592 27.564 L 79.581 27.769 L 79.517 27.952 L 79.517 28.160 L 79.433 28.334 L 79.383 28.528 L 79.357 28.732 L 79.331 28.936 L 79.267 29.118 L 79.217 29.312 L 79.170 29.509 L 79.084 29.683 L 79.028 29.878 L 78.955 30.062 L 78.885 30.247 L 78.824 30.443 L 78.717 30.613 L 78.636 30.797 L 78.528 30.971 L 78.447 31.153 L 78.342 31.332 L 78.218 31.497 L 78.125 31.683 L 78.002 31.848 L 77.854 31.996 L 77.753 32.177 L 77.608 32.326 L 77.460 32.473 L 77.313 32.621 L 77.165 32.768 L 77.014 32.911 L 76.863 33.040 L 76.704 33.146 L 76.553 33.289 L 76.380 33.401 L 76.212 33.512 L 76.041 33.617 L 75.855 33.708 L 75.690 33.830 L 75.513 33.919 L 75.335 34.007 L 75.147 34.094 L 74.951 34.158 L 74.753 34.216 L 74.566 34.309 L 74.370 34.365 L 74.176 34.425 L 73.980 34.477 L 73.778 34.508 L 73.589 34.589 L 73.385 34.608 L 73.189 34.664 L 72.985 34.683 L 72.784 34.717 L 72.585 34.757 L 72.387 34.800 L 72.178 34.800 L 71.979 34.842 L 71.771 34.850 L 71.564 34.858 L 71.360 34.883 L 71.161 34.925 L 70.953 34.925 L 70.744 34.925 L 70.536 34.925 L 70.337 34.967 L 70.128 34.967 L 69.919 34.967 L 69.711 34.967 L 69.502 34.967 L 69.293 34.967 L 69.085 34.967 L 68.876 34.967 L 68.668 34.967 L 68.459 34.967 L 68.250 34.967 L 68.042 34.967 L 67.833 34.967 L 67.624 34.967 L 67.416 34.967 L 67.207 34.967 L 66.998 34.967 L 66.790 34.967 L 66.581 34.967 L 66.373 34.967 L 66.164 34.967 L 65.955 34.967 L 65.747 34.967 L 65.538 34.967 L 65.329 34.967 L 65.121 34.967 L 64.912 34.967 L 64.703 34.967 L 64.495 34.967 L 64.286 34.967 L 64.077 34.967 L 63.869 34.967 L 63.660 34.967 L 63.452 34.967 L 63.243 34.967 L 63.034 34.967 L 62.826 34.967 L 62.617 34.967 L 62.408 34.967 L 62.200 34.967 L 61.991 34.967 L 61.782 34.967 L 61.574 34.967 L 61.365 34.967 L 61.157 34.967 L 60.948 34.967 L 60.739 34.967 L 60.531 34.967 L 60.322 34.967 L 60.113 34.967 L 59.905 34.967 L 59.696 34.967 L 59.487 34.967 L 59.279 34.967 L 59.070 34.967 L 58.861 34.967 L 58.653 34.967 L 58.444 34.967 L 58.236 34.967 L 58.027 34.967 L 57.818 34.967 L 57.610 34.967 L 57.401 34.967 L 57.192 34.967 L 56.984 34.967 L 56.775 34.967 L 56.566 34.967 L 56.358 34.967 L 56.149 34.967 L 55.940 34.967 L 55.742 35.008 L 55.533 35.008 L 55.324 35.008 L 55.116 35.008 L 54.907 35.008 L 54.698 35.008 L 54.500 35.050 L 54.291 35.050 L 54.082 35.050 L 53.878 35.069 L 53.675 35.092 L 53.466 35.092 L 53.268 35.133 L 53.059 35.133 L 52.860 35.175 L 52.652 35.177 L 52.447 35.204 L 52.251 35.258 L 52.042 35.262 L 51.840 35.297 L 51.642 35.342 L 51.438 35.375 L 51.241 35.425 L 51.042 35.467 L 50.843 35.508 L 50.647 35.560 L 50.450 35.620 L 50.254 35.675 L 50.065 35.760 L 49.869 35.824 L 49.682 35.917 L 49.505 36.006 L 49.307 36.063 L 49.121 36.156 L 48.936 36.249 L 48.754 36.346 L 48.586 36.465 L 48.422 36.589 L 48.242 36.692 L 48.073 36.810 L 47.912 36.938 L 47.764 37.085 L 47.613 37.228 L 47.466 37.376 L 47.311 37.477 L 47.187 37.642 L 47.052 37.798 L 46.909 37.949 L 46.800 38.125 L 46.661 38.278 L 46.559 38.458 L 46.444 38.629 L 46.350 38.816 L 46.259 38.992 L 46.173 39.170 L 46.084 39.348 L 45.991 39.534 L 45.898 39.721 L 45.840 39.919 L 45.758 40.108 L 45.691 40.301 L 45.617 40.483 L 45.548 40.670 L 45.492 40.865 L 45.436 41.061 L 45.383 41.257 L 45.346 41.459 L 45.304 41.658 L 45.285 41.863 L 45.258 42.065 L 45.217 42.264 L 45.175 42.463 L 45.173 42.671 L 45.133 42.870 L 45.133 43.079 L 45.092 43.277 L 45.092 43.486 L 45.050 43.685 L 45.050 43.894 L 45.050 44.102 L 45.008 44.301 L 45.008 44.510 L 45.008 44.718 L 45.008 44.927 L 45.008 45.136 L 44.967 45.334 L 44.967 45.543 L 44.967 45.752 L 44.967 45.960 L 44.967 46.169 L 44.967 46.378 L 44.967 46.586 L 44.967 46.795 L 44.967 47.003 L 44.967 47.212 L 44.967 47.421 L 44.967 47.629 L 44.967 47.838 L 44.967 48.047 L 44.967 48.255 L 44.967 48.464 L 44.967 48.673 L 44.967 48.881 L 44.967 49.090 L 44.967 49.298 L 44.967 49.507 L 44.967 49.716 L 44.967 49.924 L 44.967 50.133 L 44.967 50.342 L 44.967 50.550 L 44.967 50.759 L 44.967 50.968 L 44.967 51.176 L 44.967 51.385 L 44.967 51.594 L 44.967 51.802 L 44.967 52.011 L 44.967 52.219 L 44.967 52.428 L 44.967 52.637 L 44.967 52.845 L 44.967 53.054 L 44.967 53.263 L 44.967 53.471 L 44.967 53.680 L 44.967 53.889 L 44.967 54.097 L 44.967 54.306 L 44.967 54.515 L 44.967 54.723 L 44.967 54.932 L 44.967 55.140 L 44.967 55.349 L 44.967 55.558 L 44.967 55.766 L 44.967 55.975 L 44.967 56.184 L 44.967 56.392 L 44.967 56.601 L 45.008 56.800 L 45.008 57.008 L 45.008 57.217 L 45.008 57.426 L 45.008 57.634 L 45.050 57.833 L 45.050 58.042 L 45.050 58.250 L 45.092 58.449 L 45.092 58.658 L 45.133 58.857 L 45.133 59.065 L 45.175 59.264 L 45.175 59.473 L 45.217 59.672 L 45.258 59.870 L 45.294 60.071 L 45.312 60.275 L 45.348 60.476 L 45.389 60.677 L 45.445 60.873 L 45.501 61.068 L 45.550 61.265 L 45.630 61.446 L 45.699 61.632 L 45.758 61.827 L 45.843 62.016 L 45.906 62.212 L 45.999 62.399 L 46.092 62.586 L 46.176 62.764 L 46.261 62.943 L 46.359 63.118 L 46.452 63.304 L 46.572 63.472 L 46.671 63.654 L 46.814 63.805 L 46.918 63.984 L 47.065 64.132 L 47.196 64.291 L 47.320 64.456 L 47.479 64.554 L 47.626 64.701 L 47.777 64.844 L 47.925 64.992 L 48.087 65.119 L 48.255 65.238 L 48.437 65.337 L 48.603 65.460 L 48.767 65.584 L 48.953 65.676 L 49.138 65.769 L 49.323 65.862 L 49.520 65.920 L 49.699 66.008 L 49.885 66.101 L 50.083 66.158 L 50.272 66.242 L 50.467 66.304 L 50.663 66.365 L 50.862 66.408 L 51.061 66.450 L 51.260 66.492 L 51.455 66.549 L 51.660 66.575 L 51.857 66.626 L 52.061 66.656 L 52.267 66.667 L 52.465 66.719 L 52.670 66.742 L 52.879 66.742 L 53.077 66.783 L 53.286 66.783 L 53.485 66.825 L 53.694 66.825 L 53.895 66.856 L 54.101 66.867 L 54.310 66.867 L 54.516 66.875 L 54.717 66.908 L 54.926 66.908 L 55.134 66.908 L 55.343 66.908 L 55.552 66.908 L 55.759 66.913 L 55.959 66.950 L 56.168 66.950 L 56.376 66.950 L 56.585 66.950 L 56.794 66.950 L 57.002 66.950 L 57.211 66.950 L 57.420 66.950 L 57.628 66.950 L 57.837 66.950 L 58.045 66.950 L 58.254 66.950 L 58.463 66.950 L 58.671 66.950 L 58.880 66.950 L 59.089 66.950 L 59.297 66.950 L 59.506 66.950 L 59.715 66.950 L 59.923 66.950 L 60.132 66.950 L 60.341 66.950 L 60.549 66.950 L 60.758 66.950 L 60.966 66.950 L 61.175 66.950 L 61.384 66.950 L 61.592 66.950 L 61.801 66.950 L 62.010 66.950 L 62.218 66.950 L 62.427 66.950 L 62.636 66.950 L 62.844 66.950 L 63.053 66.950 L 63.261 66.950 L 63.470 66.950 L 63.679 66.950 L 63.887 66.950 L 64.096 66.950 L 64.305 66.950 L 64.513 66.950 L 64.722 66.950 L 64.931 66.950 L 65.139 66.950 L 65.348 66.950 L 65.557 66.950 L 65.765 66.950 L 65.974 66.950 L 66.182 66.950 L 66.391 66.950 L 66.600 66.950 L 66.808 66.950 L 67.017 66.950 L 67.226 66.950 L 67.434 66.950 L 67.643 66.950 L 67.852 66.950 L 68.060 66.950 L 68.269 66.950 L 68.477 66.950 L 68.686 66.950 L 68.895 66.950 L 69.103 66.950 L 69.312 66.950 L 69.521 66.950 L 69.729 66.950 L 69.938 66.950 L 70.147 66.950 L 70.355 66.950 L 70.554 66.992 L 70.763 66.992 L 70.971 66.992 L 71.180 66.992 L 71.379 67.033 L 71.581 67.066 L 71.790 67.067 L 71.998 67.075 L 72.197 67.117 L 72.405 67.117 L 72.602 67.168 L 72.803 67.200 L 73.002 67.242 L 73.206 67.261 L 73.401 67.317 L 73.605 67.336 L 73.797 67.408 L 73.996 67.448 L 74.195 67.492 L 74.387 67.560 L 74.582 67.616 L 74.770 67.708 L 74.967 67.767 L 75.165 67.825 L 75.351 67.918 L 75.527 68.010 L 75.707 68.095 L 75.873 68.216 L 76.059 68.307 L 76.230 68.406 L 76.397 68.523 L 76.566 68.641 L 76.717 68.784 L 76.871 68.893 L 77.027 69.019 L 77.178 69.161 L 77.326 69.309 L 77.473 69.457 L 77.621 69.604 L 77.762 69.756 L 77.867 69.934 L 78.015 70.082 L 78.133 70.250 L 78.227 70.437 L 78.351 70.601 L 78.460 70.776 L 78.535 70.962 L 78.650 71.133 L 78.717 71.323 L 78.836 71.488 L 78.893 71.686 L 78.968 71.868 L 79.036 72.055 L 79.097 72.247 L 79.175 72.425 L 79.217 72.624 L 79.267 72.817 L 79.340 72.997 L 79.364 73.202 L 79.383 73.407 L 79.433 73.601 L 79.517 73.775 L 79.517 73.984 L 79.590 74.163 L 79.592 74.371 L 79.627 74.571 L 79.633 74.779 L 79.633 74.987 L 79.683 75.181 L 79.683 75.390 L 79.683 75.598 L 79.683 75.807 L 79.694 76.011 L 79.758 76.195 L 79.758 76.403 L 79.758 76.612 L 79.758 76.821 L 79.758 77.029 L 79.758 77.238 L 79.758 77.447 L 79.758 77.655 L 79.758 77.864 L 79.758 78.073 L 79.758 78.281 L 79.758 78.490 L 79.758 78.698 L 79.758 78.907 L 79.758 79.116 L 79.758 79.324 L 79.758 79.533 L 79.758 79.742 L 79.758 79.950 L 79.758 80.159 L 79.758 80.368 L 79.758 80.576 L 79.758 80.785 L 79.758 80.994 L 79.758 81.202 L 79.758 81.411 L 79.758 81.619 L 79.758 81.828 L 79.758 82.037 L 79.758 82.245 L 79.758 82.454 L 79.758 82.663 L 79.758 82.871 L 79.758 83.080 L 79.758 83.289 L 79.758 83.497 L 79.758 83.706 L 79.758 83.915 L 79.758 84.123 L 79.758 84.332 L 79.758 84.540 L 79.758 84.749 L 79.758 84.958 L 79.758 85.166 L 79.758 85.375 L 79.758 85.584 L 79.758 85.792 L 79.758 86.001 L 79.758 86.210 L 79.758 86.418 L 79.758 86.627 L 79.758 86.835 L 79.758 87.044 L 79.758 87.253 L 79.758 87.461 L 79.758 87.670 L 79.758 87.879 L 79.758 88.087 L 79.758 88.296 L 79.758 88.505 L 79.758 88.713 L 79.758 88.922 L 79.758 89.131 L 79.758 89.339 L 79.758 89.548 L 79.758 89.756 L 79.758 89.965 L 79.699 90.151 L 79.683 90.353 L 79.683 90.561 L 79.683 90.770 L 79.683 90.979 L 79.633 91.173 L 79.633 91.381 L 79.630 91.589 L 79.592 91.789 L 79.592 91.997 L 79.517 92.176 L 79.517 92.385 L 79.433 92.559 L 79.383 92.753 L 79.367 92.958 L 79.342 93.163 L 79.267 93.343 L 79.217 93.536 L 79.175 93.735 L 79.100 93.914 L 79.039 94.105 L 78.973 94.294 L 78.896 94.474 L 78.839 94.672 L 78.717 94.837 L 78.654 95.029 L 78.572 95.206 L 78.467 95.383 L 78.360 95.559 L 78.232 95.720 L 78.139 95.905 L 78.025 96.075 L 77.923 96.255 L 77.799 96.420 L 77.679 96.587 L 77.551 96.749 L 77.408 96.866 L 77.296 97.032 L 77.166 97.183 L 77.027 97.296 L 76.888 97.408 L 76.745 97.526 L 76.601 97.666 L 76.453 97.814 L 76.297 97.919 L 76.136 98.048 L 75.960 98.153 L 75.795 98.277 L 75.624 98.392 L 75.433 98.460 L 75.268 98.583 L 75.087 98.680 L 74.910 98.769 L 74.724 98.860 L 74.534 98.933 L 74.343 99.007 L 74.155 99.092 L 73.962 99.138 L 73.768 99.182 L 73.589 99.258 L 73.383 99.280 L 73.186 99.332 L 72.985 99.356 L 72.782 99.383 Z"/>
</svg>
